<svg width="255" height="260" fill="none" xmlns="http://www.w3.org/2000/svg"><path d="m147.582 46.203 75.761-14.462-14.172 77.609-.313 1.713.819 1.536 36.965 69.39-76.515 10.195-1.785.238-1.224 1.321-52.927 57.176-33.077-71.143-.75-1.612-1.599-.777L9 143.48l56.136-54.322 1.26-1.22.223-1.741L76.585 8l67.627 37.66 1.587.883 1.783-.34Z" fill="#716F81" stroke="#000" stroke-width="10"/><path d="M57.596 144v-40.6h21.576v5.336H62.99v10.092h10.788l-1.218 5.394h-9.57v14.384h16.182V144H57.596Zm29.063 0v-29h23.026c1.16 0 2.146.425 2.958 1.276.812.812 1.218 1.798 1.218 2.958V144h-5.394v-21.46c0-.58-.212-1.063-.638-1.45-.425-.425-.928-.638-1.508-.638h-3.306V144h-5.452v-21.46c0-.58-.212-1.063-.638-1.45-.425-.425-.928-.638-1.508-.638h-3.306V144H86.66Zm31.456 14.5V115h12.122c1.199 0 2.204.406 3.016 1.218.812.812 1.218 1.817 1.218 3.016v20.532c0 1.199-.406 2.204-1.218 3.016-.812.812-1.817 1.218-3.016 1.218h-6.67v14.5h-5.452Zm5.452-19.952h3.364c.541 0 1.025-.213 1.45-.638.425-.425.638-.909.638-1.45v-13.862c0-.657-.213-1.179-.638-1.566-.425-.387-.909-.58-1.45-.58h-3.364v18.096ZM142.23 144c-1.16 0-2.166-.406-3.016-1.218-.812-.812-1.218-1.817-1.218-3.016v-8.758c0-1.16.406-2.146 1.218-2.958.85-.851 1.856-1.276 3.016-1.276h4.524c.618 0 1.121-.193 1.508-.58.425-.425.638-.928.638-1.508v-2.146a1.88 1.88 0 0 0-.638-1.45c-.387-.425-.89-.638-1.508-.638h-6.264l1.218-5.452h8.41c1.16 0 2.146.425 2.958 1.276.85.812 1.276 1.798 1.276 2.958V144H142.23Zm3.306-5.452h3.364v-6.322h-3.364c-.58 0-1.083.213-1.508.638-.387.387-.58.87-.58 1.45v2.146c0 .58.193 1.083.58 1.508.425.387.928.58 1.508.58ZM157.877 144v-42.224l5.452-1.218V115h6.902l-1.276 5.452h-5.626V144h-5.452Zm18.337 0c-1.16 0-2.165-.406-3.016-1.218-.812-.851-1.218-1.856-1.218-3.016v-20.59c0-1.16.406-2.146 1.218-2.958.851-.812 1.856-1.218 3.016-1.218h7.888c1.199 0 2.204.406 3.016 1.218.812.812 1.218 1.798 1.218 2.958v8.816c0 1.16-.406 2.165-1.218 3.016-.812.812-1.817 1.218-3.016 1.218h-6.67v4.234c0 .58.193 1.083.58 1.508.425.387.947.58 1.566.58h7.54l1.218 5.452h-12.122Zm1.218-17.226h3.364c.58 0 1.063-.193 1.45-.58.425-.425.638-.928.638-1.508v-2.146a1.88 1.88 0 0 0-.638-1.45 1.88 1.88 0 0 0-1.45-.638h-1.218a2.13 2.13 0 0 0-1.566.638c-.387.387-.58.87-.58 1.45v4.234ZM192.994 144v-5.452h5.452V144h-5.452Zm10.082 0v-5.452h5.452V144h-5.452Zm10.082 0v-5.452h5.452V144h-5.452Z" fill="#fff"/></svg>